<svg xmlns="http://www.w3.org/2000/svg" viewBox="0 0 512 512" width="512" height="512">
  <defs>
    <linearGradient id="g" x1="0" y1="0" x2="1" y2="1">
      <stop offset="0" stop-color="#7B61FF"/>
      <stop offset="1" stop-color="#A78BFF"/>
    </linearGradient>
  </defs>
  <rect width="512" height="512" rx="112" fill="url(#g)"/>
  <g fill="#ffffff">
    <ellipse cx="186" cy="168" rx="34" ry="44"/>
    <ellipse cx="326" cy="168" rx="34" ry="44"/>
    <ellipse cx="120" cy="246" rx="30" ry="40"/>
    <ellipse cx="392" cy="246" rx="30" ry="40"/>
    <path d="M256 250c-52 0-96 40-110 86-9 30 12 56 43 56 23 0 38-12 67-12s44 12 67 12c31 0 52-26 43-56-14-46-58-86-110-86z"/>
  </g>
</svg>
